<svg width="15" height="15" viewBox="0 0 15 15" fill="none" xmlns="http://www.w3.org/2000/svg">
<path d="M9.67047 6.02101L9.08677 5.924C9.07269 6.00874 9.07722 6.09553 9.10007 6.17835C9.12292 6.26116 9.16353 6.33801 9.21908 6.40354C9.27462 6.46907 9.34378 6.52172 9.42173 6.55782C9.49968 6.59392 9.58456 6.61262 9.67047 6.6126V6.02101ZM0.993926 6.02101V5.42943C0.837029 5.42943 0.686557 5.49176 0.575614 5.6027C0.464671 5.71365 0.402344 5.86412 0.402344 6.02101H0.993926ZM2.57148 14.5004H11.532V13.3172H2.57148V14.5004ZM12.4785 5.42943H9.67047V6.6126H12.4785V5.42943ZM10.2542 6.11803L10.8899 2.3043L9.72253 2.10947L9.08677 5.924L10.2542 6.11803ZM9.52849 0.696773H9.35969V1.87994H9.5277L9.52849 0.696773ZM6.89792 2.01403L4.91415 4.99008L5.89854 5.64635L7.88231 2.67029L6.89792 2.01403ZM4.09382 5.42943H0.993926V6.6126H4.09382V5.42943ZM0.402344 6.02101V12.3312H1.58551V6.02101H0.402344ZM13.6593 12.7572L14.6058 8.02451L13.4463 7.79182L12.4998 12.5245L13.6593 12.7572ZM4.91415 4.99008C4.82415 5.12519 4.70218 5.23519 4.55908 5.31184C4.41597 5.38848 4.25616 5.4286 4.09382 5.42864V6.61181C4.81949 6.61181 5.49626 6.24976 5.89854 5.64635L4.91415 4.99008ZM10.8899 2.3043C10.9228 2.10661 10.9122 1.90334 10.8589 1.71015C10.8056 1.51695 10.7109 1.33768 10.5814 1.18478C10.4518 1.03188 10.2905 0.909028 10.1087 0.824754C9.92689 0.74048 9.72889 0.696808 9.52849 0.696773L9.5277 1.87994C9.55629 1.88001 9.58531 1.88629 9.61123 1.89836C9.63715 1.91043 9.66014 1.92799 9.6786 1.94982C9.69706 1.97166 9.71055 1.99725 9.71813 2.02481C9.72572 2.05238 9.72722 2.08127 9.72253 2.10947L10.8899 2.3043ZM12.4785 6.61181C13.1016 6.61181 13.567 7.18131 13.4456 7.79103L14.6058 8.02372C14.6686 7.70907 14.6608 7.38363 14.583 7.07236C14.5051 6.7611 14.3592 6.47098 14.1557 6.22291C13.9523 5.97484 13.6963 5.775 13.4062 5.63779C13.1162 5.50058 12.7994 5.42942 12.4785 5.42943V6.61181ZM11.532 14.5004C12.0334 14.5005 12.5194 14.326 12.9072 14.0082C13.2951 13.6904 13.5608 13.248 13.6593 12.7564L12.4998 12.5237C12.4551 12.7474 12.3342 12.9487 12.1577 13.0932C11.9812 13.2378 11.7601 13.3174 11.532 13.3172V14.5004ZM9.35969 0.696773C8.87275 0.696808 8.39335 0.816268 7.96404 1.04606C7.53474 1.27585 7.1688 1.60807 6.89871 2.01324L7.88231 2.67029C8.04444 2.42708 8.26413 2.22689 8.52186 2.08901C8.7796 1.95113 9.06739 1.87983 9.35969 1.87994V0.696773ZM2.57148 13.3172C2.02722 13.3172 1.58551 12.8755 1.58551 12.3312H0.402344C0.402344 12.9065 0.630877 13.4582 1.03767 13.865C1.44446 14.2718 1.99619 14.5004 2.57148 14.5004V13.3172Z" fill="#687684"/>
<path d="M4.14941 6.021V13.9088" stroke="#687684" stroke-width="1.37383"/>
</svg>
